<?xml version="1.0" encoding="UTF-8" standalone="no"?>
<!-- Generator: Adobe Illustrator 17.1.0, SVG Export Plug-In . SVG Version: 6.00 Build 0)  -->

<svg
   xmlns:dc="http://purl.org/dc/elements/1.1/"
   xmlns:cc="http://creativecommons.org/ns#"
   xmlns:rdf="http://www.w3.org/1999/02/22-rdf-syntax-ns#"
   xmlns:svg="http://www.w3.org/2000/svg"
   xmlns="http://www.w3.org/2000/svg"
   xmlns:sodipodi="http://sodipodi.sourceforge.net/DTD/sodipodi-0.dtd"
   xmlns:inkscape="http://www.inkscape.org/namespaces/inkscape"
   version="1.1"
   id="Capa_1"
   x="0px"
   y="0px"
   width="485.2px"
   height="485.2px"
   viewBox="0 0 485.2 485.2"
   enable-background="new 0 0 485.2 485.2"
   xml:space="preserve"
   inkscape:version="0.91 r13725"
   sodipodi:docname="profile.svg"><metadata
     id="metadata17"><rdf:RDF><cc:Work
         rdf:about=""><dc:format>image/svg+xml</dc:format><dc:type
           rdf:resource="http://purl.org/dc/dcmitype/StillImage" /></cc:Work></rdf:RDF></metadata><defs
     id="defs15" /><sodipodi:namedview
     pagecolor="#ffffff"
     bordercolor="#666666"
     borderopacity="1"
     objecttolerance="10"
     gridtolerance="10"
     guidetolerance="10"
     inkscape:pageopacity="0"
     inkscape:pageshadow="2"
     inkscape:window-width="1191"
     inkscape:window-height="895"
     id="namedview13"
     showgrid="false"
     inkscape:zoom="0.48639735"
     inkscape:cx="242.60001"
     inkscape:cy="242.60001"
     inkscape:window-x="1185"
     inkscape:window-y="952"
     inkscape:window-maximized="0"
     inkscape:current-layer="Capa_1" /><g
     id="g3"
     style="fill:#ff6868"><path
       fill="#131F2A"
       d="M249.1,236.9c53.7,0,97.3-52.9,97.3-118.2c0-65.3-14.3-118.2-97.3-118.2s-97.3,52.9-97.3,118.2   C151.8,184,195.3,236.9,249.1,236.9z"
       id="path5"
       style="fill:#ff6868" /><path
       fill="#131F2A"
       d="M65.3,417.4C65.3,413.4,65.2,416.3,65.3,417.4L65.3,417.4z"
       id="path7"
       style="fill:#ff6868" /><path
       fill="#131F2A"
       d="M432.9,420.5C432.9,419.4,432.9,413,432.9,420.5L432.9,420.5z"
       id="path9"
       style="fill:#ff6868" /><path
       fill="#131F2A"
       d="M432.7,412.6C430.9,298.9,416,266.5,302.4,246c0,0-16,20.4-53.3,20.4S195.8,246,195.8,246   C83.4,266.3,67.6,298.2,65.6,408.9c-0.2,9-0.2,9.5-0.3,8.5c0,2,0,5.6,0,11.9c0,0,27.1,54.5,183.8,54.5   c156.7,0,183.8-54.5,183.8-54.5c0-4.1,0-6.9,0-8.8C432.8,421.2,432.8,419.9,432.7,412.6z"
       id="path11"
       style="fill:#ff6868" /></g><path
     style="fill:#ff6868;fill-opacity:0"
     d="M 217.31204,482.18334 C 160.98738,478.72726 114.15874,466.57382 86.817646,448.31613 67.85121,435.65083 66.197217,432.72102 66.22223,411.83436 c 0.03203,-26.74403 3.78955,-64.19151 8.152932,-81.25217 11.56286,-45.21035 37.599088,-65.64616 101.393668,-79.58381 l 18.07883,-3.94981 9.13969,6.28827 c 14.79904,10.182 24.51711,12.89491 46.19164,12.89491 22.12123,0 33.4568,-3.26462 45.85119,-13.20508 l 7.81647,-6.26888 15.82676,3.40307 c 39.45089,8.48274 63.20016,18.67772 79.56583,34.15569 19.84085,18.76466 27.95217,41.37238 31.72511,88.42377 3.39445,42.33153 2.97043,55.81734 -1.95172,62.07485 -6.54641,8.32242 -27.28894,21.15043 -45.64745,28.23022 -39.05406,15.06083 -105.65165,22.78285 -165.05314,19.13795 z"
     id="path3345"
     inkscape:connector-curvature="0" /><path
     style="fill:#ff6868;fill-opacity:0"
     d="M 217.31204,482.18334 C 160.98738,478.72726 114.15874,466.57382 86.817646,448.31613 67.85121,435.65083 66.197217,432.72102 66.22223,411.83436 c 0.03203,-26.74403 3.78955,-64.19151 8.152932,-81.25217 11.56286,-45.21035 37.599088,-65.64616 101.393668,-79.58381 l 18.07883,-3.94981 9.13969,6.28827 c 14.79904,10.182 24.51711,12.89491 46.19164,12.89491 22.12123,0 33.4568,-3.26462 45.85119,-13.20508 l 7.81647,-6.26888 15.82676,3.40307 c 39.45089,8.48274 63.20016,18.67772 79.56583,34.15569 19.84085,18.76466 27.95217,41.37238 31.72511,88.42377 3.39445,42.33153 2.97043,55.81734 -1.95172,62.07485 -6.54641,8.32242 -27.28894,21.15043 -45.64745,28.23022 -39.05406,15.06083 -105.65165,22.78285 -165.05314,19.13795 z"
     id="path3347"
     inkscape:connector-curvature="0" /></svg>